<svg width="278" height="63" viewBox="0 0 278 63" fill="none" xmlns="http://www.w3.org/2000/svg">
<g clip-path="url(#clip0_511_9)">
<path d="M30.2579 35.7613C30.5329 35.9976 30.8079 36.2347 31.088 36.463C30.0597 37.5922 28.9588 38.7053 27.8048 39.7821C26.9022 40.6306 25.9608 41.4461 24.9999 42.2172C24.0391 41.4461 23.0977 40.6306 22.1951 39.7821C21.0411 38.7053 19.9351 37.5842 18.9119 36.463C16.1889 33.502 13.9686 30.5169 12.6214 28.2165C9.5002 22.9036 8.37741 18.5375 8.29053 18.1851H17.7773C18.55 20.387 21.1136 25.383 24.9999 30.2233C25.8351 31.263 26.7335 32.2986 27.6842 33.298C27.6933 33.3071 27.7031 33.3154 27.7137 33.323C28.0224 33.6456 28.3413 33.9755 28.6695 34.2909C29.0912 34.7071 29.524 35.1104 29.9778 35.5064C30.0698 35.5943 30.1609 35.6798 30.2579 35.7613Z" fill="url(#paint0_linear_511_9)"/>
<path d="M37.635 14.9908C34.0186 14.9908 31.088 12.0871 31.088 8.49782C31.088 4.90853 34.0186 2 37.635 2C41.2513 2 44.1819 4.91095 44.1819 8.49782C44.1819 12.0847 41.2505 14.9908 37.635 14.9908Z" fill="url(#paint1_linear_511_9)"/>
<path d="M49.483 52.0002H40.2087C40.2374 51.8615 42.6947 39.9499 37.3794 28.2165C40.5006 22.9036 41.6226 18.5375 41.7094 18.1851C42.5454 19.3264 43.2979 20.4806 43.9871 21.6429V21.6469C51.3945 34.2812 50.1494 47.6818 49.483 52.0002Z" fill="url(#paint2_linear_511_9)"/>
<path d="M12.6213 28.2141C7.30683 39.9474 9.7633 51.859 9.79198 51.9977H0.516941C-0.148635 47.6793 -1.39459 34.2788 6.01617 21.6445V21.6404C6.70199 20.4781 7.4553 19.3239 8.2938 18.1826C8.37732 18.5351 9.50264 22.9035 12.6213 28.2141Z" fill="url(#paint3_linear_511_9)"/>
<path d="M19.1676 8.49782C19.1676 12.0839 16.237 14.9908 12.6215 14.9908C9.00598 14.9908 6.07373 12.0823 6.07373 8.49782C6.07373 4.91337 9.00513 2 12.6215 2C16.2379 2 19.1676 4.91095 19.1676 8.49782Z" fill="url(#paint4_linear_511_9)"/>
<path d="M41.7094 18.1851C41.625 18.5359 40.498 22.9036 37.3793 28.2165C36.0296 30.5169 33.811 33.502 31.088 36.463C30.808 36.2347 30.5329 35.9976 30.2579 35.7613C30.1609 35.6806 30.0698 35.5943 29.9779 35.5088C29.524 35.1128 29.0947 34.7095 28.6695 34.2933C28.3414 33.9755 28.0225 33.648 27.7138 33.3254C27.7032 33.3179 27.6933 33.3095 27.6842 33.3004C26.7335 32.301 25.8351 31.2654 25 30.2257C25.8984 29.1046 26.7285 27.9786 27.4767 26.8816C29.9779 23.2238 31.6287 19.8797 32.2226 18.1875L41.7094 18.1851Z" fill="url(#paint5_linear_511_9)"/>
<g style="mix-blend-mode:soft-light" opacity="0.6">
<path d="M43.9837 21.6429V21.6469C41.9414 25.5822 37.3794 28.2141 37.3794 28.2141C40.5006 22.9011 41.6225 18.5351 41.7094 18.1826C42.5454 19.3264 43.2979 20.4806 43.9837 21.6429Z" fill="black"/>
</g>
<g style="mix-blend-mode:soft-light" opacity="0.6">
<path d="M31.088 36.4627C30.808 36.2345 30.533 35.9973 30.258 35.761C30.161 35.6803 30.0698 35.594 29.9779 35.5085C29.5241 35.1125 29.0947 34.7092 28.6695 34.293C28.3414 33.9752 28.0225 33.6478 27.7138 33.3251C27.7032 33.3176 27.6933 33.3092 27.6842 33.3001C26.7335 32.3016 25.8351 31.2651 25 30.2254C25.8984 29.1043 26.7285 27.9783 27.4767 26.8813C27.4767 26.8789 26.9217 29.7294 31.088 36.4627Z" fill="black"/>
</g>
<g style="mix-blend-mode:soft-light" opacity="0.6">
<path d="M12.6215 28.2141C12.6215 28.2141 8.05864 25.5798 6.01636 21.6445V21.6404C6.70218 20.4781 7.45549 19.3239 8.294 18.1826C8.37751 18.5351 9.50283 22.9035 12.6215 28.2141Z" fill="black"/>
</g>
</g>
<path d="M70.1 52V14.62H75.14L83.06 32.14L91.1 14.56H96.08V52H90.86V25.18L84.26 39.4H81.5L75.26 25.3V52H70.1ZM110.12 52.66C107.04 52.66 104.64 51.96 102.92 50.56C101.24 49.12 100.4 47.26 100.4 44.98C100.4 41.98 101.74 39.56 104.42 37.72C107.1 35.84 110.76 34.9 115.4 34.9C115.92 34.9 116.5 34.92 117.14 34.96C117.78 34.96 118.46 34.98 119.18 35.02C118.9 32.42 118.18 30.66 117.02 29.74C115.86 28.82 114.26 28.36 112.22 28.36C110.94 28.36 109.7 28.58 108.5 29.02C107.34 29.46 106.2 30.22 105.08 31.3L101.9 27.7C103.42 26.26 105.08 25.22 106.88 24.58C108.72 23.94 110.6 23.62 112.52 23.62C114.88 23.62 117 24 118.88 24.76C120.76 25.52 122.24 26.84 123.32 28.72C124.4 30.56 124.94 33.14 124.94 36.46V52H118.7V48.58C117.66 50.18 116.38 51.26 114.86 51.82C113.38 52.38 111.8 52.66 110.12 52.66ZM106.4 44.32C106.4 45.72 106.84 46.7 107.72 47.26C108.64 47.82 109.78 48.1 111.14 48.1C113.58 48.1 115.48 47.38 116.84 45.94C118.24 44.46 119.04 42.24 119.24 39.28C118.6 39.24 117.94 39.22 117.26 39.22C116.58 39.18 115.98 39.16 115.46 39.16C112.38 39.16 110.1 39.62 108.62 40.54C107.14 41.42 106.4 42.68 106.4 44.32ZM133.94 24.22H140.12L140.06 28.96C140.82 27.28 141.96 25.96 143.48 25C145 24.04 146.62 23.56 148.34 23.56C151.34 23.56 153.84 24.6 155.84 26.68L153.32 31.6L153.08 32.14L152.6 31.9C152.48 31.58 152.36 31.26 152.24 30.94C152.12 30.62 151.82 30.24 151.34 29.8C150.14 29 148.88 28.6 147.56 28.6C146.28 28.6 145.06 28.9 143.9 29.5C142.74 30.1 141.8 31.06 141.08 32.38C140.36 33.66 140 35.34 140 37.42V52.06H133.94V24.22ZM163.4 52V47.26H170.3V28.96H163.7V24.22H176.3V47.26H182.6V52H163.4ZM172.94 19.24C171.86 19.24 170.94 18.88 170.18 18.16C169.46 17.4 169.1 16.52 169.1 15.52C169.1 14.44 169.46 13.54 170.18 12.82C170.9 12.1 171.82 11.74 172.94 11.74C173.98 11.74 174.88 12.12 175.64 12.88C176.44 13.6 176.84 14.48 176.84 15.52C176.84 16.52 176.44 17.4 175.64 18.16C174.88 18.88 173.98 19.24 172.94 19.24Z" fill="#56D4CC"/>
<path d="M190.76 52.06V14.62H200.06C203.34 14.62 205.88 15.06 207.68 15.94C209.48 16.82 211 18.1 212.24 19.78C213.48 21.46 214.42 23.46 215.06 25.78C215.74 28.06 216.08 30.64 216.08 33.52C216 37.32 215.38 40.62 214.22 43.42C213.1 46.18 211.32 48.32 208.88 49.84C206.48 51.32 203.3 52.06 199.34 52.06H190.76ZM196.46 47.38H199.22C203.22 47.38 206.06 46.16 207.74 43.72C209.46 41.28 210.32 37.94 210.32 33.7C210.28 30.78 209.94 28.26 209.3 26.14C208.66 23.98 207.58 22.32 206.06 21.16C204.54 19.96 202.46 19.36 199.82 19.36H196.46V47.38ZM233 52.6C230.48 52.6 228.22 52 226.22 50.8C224.26 49.56 222.7 47.86 221.54 45.7C220.42 43.5 219.86 40.98 219.86 38.14C219.86 35.34 220.42 32.86 221.54 30.7C222.7 28.5 224.26 26.78 226.22 25.54C228.22 24.26 230.48 23.62 233 23.62C235.48 23.62 237.7 24.26 239.66 25.54C241.66 26.78 243.24 28.5 244.4 30.7C245.56 32.86 246.14 35.34 246.14 38.14C246.14 40.98 245.56 43.48 244.4 45.64C243.24 47.8 241.66 49.5 239.66 50.74C237.7 51.98 235.48 52.6 233 52.6ZM233 47.74C235.04 47.74 236.72 46.84 238.04 45.04C239.36 43.24 240.02 40.92 240.02 38.08C240.02 35.16 239.36 32.82 238.04 31.06C236.72 29.3 235.04 28.42 233 28.42C230.96 28.42 229.28 29.3 227.96 31.06C226.64 32.82 225.98 35.16 225.98 38.08C225.98 40.92 226.62 43.24 227.9 45.04C229.22 46.84 230.92 47.74 233 47.74ZM264.86 52.66C262.14 52.66 259.7 52.04 257.54 50.8C255.42 49.56 253.74 47.86 252.5 45.7C251.3 43.54 250.7 41.08 250.7 38.32C250.7 35.56 251.3 33.08 252.5 30.88C253.74 28.64 255.42 26.88 257.54 25.6C259.7 24.32 262.12 23.68 264.8 23.68C267.28 23.68 269.44 24.14 271.28 25.06C273.16 25.98 274.68 27.28 275.84 28.96L272.42 32.56L272 32.98L271.64 32.62C271.6 32.3 271.52 32 271.4 31.72C271.32 31.4 271.06 30.98 270.62 30.46C269.82 29.74 268.94 29.24 267.98 28.96C267.02 28.64 265.92 28.48 264.68 28.48C263.32 28.48 262.02 28.88 260.78 29.68C259.58 30.44 258.6 31.54 257.84 32.98C257.12 34.42 256.76 36.14 256.76 38.14C256.76 40.06 257.14 41.74 257.9 43.18C258.66 44.62 259.66 45.74 260.9 46.54C262.18 47.3 263.58 47.68 265.1 47.68C266.38 47.68 267.62 47.42 268.82 46.9C270.02 46.38 271.14 45.52 272.18 44.32L275.48 48.16C274.08 49.72 272.44 50.86 270.56 51.58C268.72 52.3 266.82 52.66 264.86 52.66Z" fill="#FF6C6C"/>
<defs>
<linearGradient id="paint0_linear_511_9" x1="19.6897" y1="42.2172" x2="19.6897" y2="18.1851" gradientUnits="userSpaceOnUse">
<stop stop-color="#FF9F9F"/>
<stop offset="1" stop-color="#FF6C6C"/>
</linearGradient>
<linearGradient id="paint1_linear_511_9" x1="5872.79" y1="2094.3" x2="5872.79" y2="2" gradientUnits="userSpaceOnUse">
<stop stop-color="#FF9F9F"/>
<stop offset="1" stop-color="#FF6C6C"/>
</linearGradient>
<linearGradient id="paint2_linear_511_9" x1="6574.15" y1="20980.2" x2="6574.15" y2="6803.53" gradientUnits="userSpaceOnUse">
<stop stop-color="#FF9F9F"/>
<stop offset="1" stop-color="#FF6C6C"/>
</linearGradient>
<linearGradient id="paint3_linear_511_9" x1="6.31057" y1="52.0002" x2="6.31057" y2="18.185" gradientUnits="userSpaceOnUse">
<stop stop-color="#56D4CC"/>
<stop offset="1" stop-color="#F9A5A5"/>
</linearGradient>
<linearGradient id="paint4_linear_511_9" x1="1965.18" y1="2094.3" x2="1965.18" y2="2" gradientUnits="userSpaceOnUse">
<stop stop-color="#56D4CC"/>
<stop offset="1" stop-color="#F9A5A5"/>
</linearGradient>
<linearGradient id="paint5_linear_511_9" x1="6631.88" y1="7827.8" x2="6631.88" y2="3685.84" gradientUnits="userSpaceOnUse">
<stop stop-color="#56D4CC"/>
<stop offset="1" stop-color="#F9A5A5"/>
</linearGradient>
<clipPath id="clip0_511_9">
<rect width="50" height="50" fill="white" transform="translate(0 2)"/>
</clipPath>
</defs>
</svg>
